<?xml version="1.0" encoding="UTF-8" standalone="no"?>
<!DOCTYPE svg PUBLIC "-//W3C//DTD SVG 1.1//EN" "http://www.w3.org/Graphics/SVG/1.1/DTD/svg11.dtd">
<svg width="100%" height="100%" viewBox="0 0 809 809" version="1.1" xmlns="http://www.w3.org/2000/svg" xmlns:xlink="http://www.w3.org/1999/xlink" xml:space="preserve" xmlns:serif="http://www.serif.com/" style="fill-rule:evenodd;clip-rule:evenodd;stroke-linejoin:round;stroke-miterlimit:2;">
    <g transform="matrix(1,0,0,1,-960,-135.88)">
        <path d="M1364.12,135.88C1587.16,135.88 1768.24,316.96 1768.24,540C1768.24,763.04 1587.16,944.12 1364.12,944.12C1141.08,944.12 960,763.04 960,540C960,316.96 1141.08,135.88 1364.12,135.88ZM1364.12,193.611C1555.3,193.611 1710.51,348.823 1710.51,540C1710.51,731.177 1555.3,886.389 1364.12,886.389C1172.94,886.389 1017.73,731.177 1017.73,540C1017.73,348.823 1172.94,193.611 1364.12,193.611Z" style="fill:#ebebeb;"/>
    </g>
</svg>
