<?xml version="1.0" encoding="UTF-8" standalone="no"?>
<!DOCTYPE svg PUBLIC "-//W3C//DTD SVG 1.1//EN" "http://www.w3.org/Graphics/SVG/1.1/DTD/svg11.dtd">
<svg width="100%" height="100%" viewBox="0 0 24 24" version="1.1" xmlns="http://www.w3.org/2000/svg" xmlns:xlink="http://www.w3.org/1999/xlink" xml:space="preserve" xmlns:serif="http://www.serif.com/" style="fill-rule:evenodd;clip-rule:evenodd;stroke-linejoin:round;stroke-miterlimit:2;">
    <g transform="matrix(1,0,0,1,-239.033,-230.167)">
        <g transform="matrix(0.217589,0,0,0.217589,203.742,196.806)">
            <path d="M272.49,157.92C272.49,156.702 272.006,155.533 271.144,154.671C270.282,153.809 269.113,153.325 267.894,153.325L166.786,153.325C165.567,153.325 164.398,153.809 163.536,154.671C162.675,155.533 162.19,156.702 162.19,157.92L162.19,259.029C162.19,260.248 162.675,261.417 163.536,262.278C164.398,263.14 165.567,263.625 166.786,263.625L267.894,263.625C269.113,263.625 270.282,263.14 271.144,262.278C272.006,261.417 272.49,260.248 272.49,259.029L272.49,157.92Z" style="fill:#31c3f3;"/>
        </g>
        <g transform="matrix(0.178091,0,0,0.178091,203.783,208.835)">
            <text x="225.371px" y="234.623px" style="font-family:'Arial-BoldMT', 'Arial', sans-serif;font-weight:700;font-size:50px;">CSS</text>
        </g>
    </g>
</svg>
