<?xml version="1.0" encoding="UTF-8" standalone="no"?>
<!DOCTYPE svg PUBLIC "-//W3C//DTD SVG 1.1//EN" "http://www.w3.org/Graphics/SVG/1.1/DTD/svg11.dtd">
<svg width="100%" height="100%" viewBox="0 0 1920 1080" version="1.1" xmlns="http://www.w3.org/2000/svg" xmlns:xlink="http://www.w3.org/1999/xlink" xml:space="preserve" xmlns:serif="http://www.serif.com/" style="fill-rule:evenodd;clip-rule:evenodd;stroke-linejoin:round;stroke-miterlimit:2;">
    <g>
        <path id="tall-mountain" d="M1019.27,234.121C1025.91,221.811 1035.26,208.982 1043.08,216.803C1049.1,222.821 1055.91,226.818 1061.38,232.292C1063.04,233.946 1064.27,247.106 1066.95,260.282L1095.88,297.132C1108.23,302.946 1122.25,308.643 1127.56,313.96C1139.42,325.819 1149.96,336.358 1162.76,349.162C1171.12,357.52 1165.31,378.171 1170.16,391.738L1327.32,591.915C1328.66,592.111 1329.71,591.965 1330.33,591.353C1331.73,589.945 1331.73,587.129 1333.14,585.72C1335.84,583.022 1344.01,589.546 1344.41,589.945C1347.67,593.213 1356.39,592.074 1359.9,595.577C1373.69,609.377 1370.6,633.038 1383.83,646.268C1391.28,653.715 1397.05,651.9 1409.18,651.9C1409.65,651.9 1410.26,651.568 1410.59,651.9C1414.74,656.052 1412.31,665.203 1414.81,670.205C1421.56,683.706 1426.45,705.345 1432.12,725.412L1468.62,771.9C1476.98,771.516 1485.88,770.848 1490.85,775.812C1503.58,788.541 1509.22,810.391 1515.85,832.057L1569.77,900.733C1575.57,902.94 1581.55,905.941 1588.01,912.396C1592.52,916.908 1597.03,928.744 1600.59,939.996L1710.51,1080L357.34,1080L495.991,903.396C497.908,893.658 500.82,884.524 505.189,875.786C506.974,872.216 505.41,867.116 508.005,864.521C511.166,861.36 510.001,830.139 513.638,826.503C521.671,818.469 542.256,817.597 551.656,808.198C559.87,799.984 558.931,782.617 567.145,774.404C574.098,767.45 586.204,763.793 593.898,756.099C602.334,747.663 582.858,722.08 588.266,716.672C590.946,713.992 591.299,706.598 593.898,703.999C599.155,698.743 607.217,692.089 612.203,687.102C614.316,684.99 619.948,686.398 622.06,684.286C633.562,672.784 665.091,667.977 688.9,657.68L711.092,629.414C710.43,618.696 708.578,606.216 710.769,604.026C723.512,591.282 739.374,582.462 751.604,570.232C758.708,563.127 745.976,546.289 751.604,540.662C759.731,532.534 772.515,525.383 781.173,516.724C785.904,511.994 783.88,488.672 792.438,480.114C806.859,465.694 833.616,467.098 847.353,453.361C855.885,444.829 857.78,434.485 865.658,426.607C871.369,420.896 857.472,398.183 867.066,388.589C876.923,378.733 885.655,370 895.228,360.427C900.391,355.264 898.514,343.061 903.677,337.898C909.309,332.265 924.798,336.49 930.43,330.857C936.633,324.655 922.98,307.33 929.022,301.288C937.74,292.57 948.483,287.459 955.776,280.166C956.9,279.042 957.587,263.871 960,259.045C966.092,246.861 989.712,256.087 995.202,250.597C1002.46,243.343 1012.28,241.276 1019.27,234.121Z" style="fill:url(#_Linear1);"/>
    </g>
    <g transform="matrix(1,0,0,1,12.9857,-12.6728)">
        <path id="back-mountain" d="M676.232,894.672C692.635,883.025 715.547,878.637 743.155,878.637C747.213,878.637 756.528,876.875 760.052,878.637C786.788,892.005 835.87,919.253 854.394,937.777C871.763,955.145 887.211,977.634 907.901,998.324C911.525,1001.95 919.562,1002.94 923.39,1006.77C925.278,1008.66 927.196,1010.44 929.12,1012.15L981.774,1036.61C1002.19,1038.44 1025.52,1039.9 1033.22,1047.61C1039.77,1054.15 1057.4,1068.7 1073.44,1079.2L1099.4,1091.26L-12.986,1092.67L-12.986,574.491L-12.915,574.419C-6.883,568.195 3.356,533.359 8.136,523.8C19.391,501.288 50.999,484.374 79.948,484.374C84.033,484.374 90.502,483.663 92.621,485.782C122.134,515.295 132.924,559.879 165.841,592.796C167.918,594.873 175.38,592.478 177.106,594.204C189.296,606.394 230.127,580.366 241.877,574.491C246.822,572.019 254.152,573.986 258.774,571.675C282.352,559.886 302.174,575.773 319.322,584.348C338.888,594.13 347.426,653.229 358.748,675.873C361.67,681.717 361.208,695.229 365.789,699.81C376.049,710.071 376.968,732.111 389.726,744.869C403.432,758.575 431.41,751.351 446.05,765.99C450.091,770.031 452.422,782.06 455.391,792.079L584.298,851.963C587.776,851.993 590.593,852.802 592.49,854.7C593.142,855.352 593.788,856.008 594.425,856.668L676.232,894.672Z" style="fill:url(#_Linear2);"/>
    </g>
    <g transform="matrix(1,0,0,1,-48.1877,-23.9304)">
        <path id="front-mountain" d="M810.744,1103.66C810.927,1080.47 834.382,1065.36 852.986,1056.06C855.832,1054.63 865.004,1056.71 867.066,1054.65C872.513,1049.2 897.655,1046.95 914.964,1045.86L1045.34,973.216C1050.47,964.51 1055.69,956.137 1061.38,950.449C1062.58,949.254 1073.95,949.784 1087.75,949.591L1162.06,908.186C1167.45,897.035 1172.09,883.391 1179.66,875.821C1184.39,871.092 1189.95,868.345 1193.74,864.556C1198.87,859.431 1218.66,862.272 1239.77,864.885L1339.05,809.57C1354.79,789.102 1371.13,770.23 1393.69,758.95C1402.12,754.734 1417.87,754.99 1434.45,756.417L1545.69,694.434C1561.46,679.049 1576.51,664.837 1590.82,650.528C1597.25,644.104 1614.33,646.372 1628.34,648.385L1694.29,611.639C1714.57,591.2 1735.31,567.123 1740.08,557.594C1748.31,541.136 1767.55,562.164 1782.32,554.778C1794.09,548.894 1812.57,532.974 1821.75,523.8C1834.89,510.659 1864.38,498.068 1878.07,484.374C1883.13,479.315 1928.35,476.338 1932.99,471.701C1935.5,469.187 1963.99,459.028 1968.19,459.028L1968.19,1103.93L810.743,1103.93L810.744,1103.66Z" style="fill:url(#_Linear3);"/>
    </g>
    <defs>
        <linearGradient id="_Linear1" x1="0" y1="0" x2="1" y2="0" gradientUnits="userSpaceOnUse" gradientTransform="matrix(-120.611,385.815,-385.815,-120.611,1196.39,559.239)"><stop offset="0" style="stop-color:#a000af;stop-opacity:1"/><stop offset="0.57" style="stop-color:#540073;stop-opacity:1"/><stop offset="1" style="stop-color:#330059;stop-opacity:1"/></linearGradient>
        <linearGradient id="_Linear2" x1="0" y1="0" x2="1" y2="0" gradientUnits="userSpaceOnUse" gradientTransform="matrix(-137.992,493.653,-493.653,-137.992,358.748,501.278)"><stop offset="0" style="stop-color:#7f00af;stop-opacity:1"/><stop offset="1" style="stop-color:#330059;stop-opacity:1"/></linearGradient>
        <linearGradient id="_Linear3" x1="0" y1="0" x2="1" y2="0" gradientUnits="userSpaceOnUse" gradientTransform="matrix(1.85482e-05,248.646,-248.646,1.85482e-05,1599.58,781.479)"><stop offset="0" style="stop-color:#9300ad;stop-opacity:1"/><stop offset="1" style="stop-color:#320057;stop-opacity:1"/></linearGradient>
    </defs>
</svg>
