<?xml version="1.0" encoding="UTF-8" standalone="no"?>
<!DOCTYPE svg PUBLIC "-//W3C//DTD SVG 1.1//EN" "http://www.w3.org/Graphics/SVG/1.1/DTD/svg11.dtd">
<svg width="100%" height="100%" viewBox="0 0 1543 1476" version="1.1" xmlns="http://www.w3.org/2000/svg" xmlns:xlink="http://www.w3.org/1999/xlink" xml:space="preserve" xmlns:serif="http://www.serif.com/" style="fill-rule:evenodd;clip-rule:evenodd;stroke-linejoin:round;stroke-miterlimit:2;">
    <g transform="matrix(4.16667,0,0,4.16667,-4572.95,-2002.45)">
        <g id="backlight-group" transform="matrix(4.16667,0,0,4.16667,0,1.42109e-14)">
            <g id="backlight3" transform="matrix(1.13999,0,0,1.13999,-46.5187,-29.7077)">
                <circle cx="311.097" cy="164.518" r="37.281" style="fill-opacity:0.75;"/>
            </g>
            <g id="backlight2" transform="matrix(0.979046,0,0,0.979046,3.506,-3.27329)">
                <circle cx="311.097" cy="164.518" r="37.281" style="fill-opacity:0.75;"/>
            </g>
            <g id="backlight1" transform="matrix(0.804696,0,0,0.804696,57.9882,25.6528)">
                <circle cx="311.097" cy="164.518" r="37.281" style="fill-opacity:0.75;"/>
            </g>
        </g>
        <g id="sun-group" transform="matrix(4.16667,0,0,4.16667,-0.574934,-1.14987)">
            <g id="sun" transform="matrix(0.83346,0,0,0.83346,54.702,27.3265)">
                <circle cx="304.091" cy="156.627" r="32.507"/>
            </g>
            <g id="flare" transform="matrix(1,0,0,1,-141.848,38.6357)">
                <g id="flare12" transform="matrix(0.896488,-0.443067,0.443067,0.896488,-25.3948,142.725)">
                    <path d="M435.219,151.392L439.428,158.93L431.011,158.93L435.219,151.392Z">
                </g>
                <g id="flare11" transform="matrix(0.587383,-0.809309,0.809309,0.587383,39.2637,361.282)">
                    <path d="M435.219,151.392L439.428,158.93L431.011,158.93L435.219,151.392Z">
                </g>
                <g id="flare10" transform="matrix(-1.83697e-16,-1,1,-1.83697e-16,261.093,554.551)">
                    <path d="M435.219,151.392L439.428,158.93L431.011,158.93L435.219,151.392Z">
                </g>
                <g id="flare9" transform="matrix(-0.443067,-0.896488,0.896488,-0.443067,473.49,594.626)">
                    <path d="M435.219,151.392L439.428,158.93L431.011,158.93L435.219,151.392Z">
                </g>
                <g id="flare8" transform="matrix(-0.809309,-0.587383,0.587383,-0.809309,692.047,529.967)">
                    <path d="M435.219,151.392L439.428,158.93L431.011,158.93L435.219,151.392Z">
                </g>
                <g id="flare7" transform="matrix(-1,5.55112e-17,-5.55112e-17,-1,885.316,308.138)">
                    <path d="M435.219,151.392L439.428,158.93L431.011,158.93L435.219,151.392Z">
                </g>
                <g id="flare6" transform="matrix(-0.896488,0.443067,-0.443067,-0.896488,925.391,95.7407)">
                    <path d="M435.219,151.392L439.428,158.93L431.011,158.93L435.219,151.392Z">
                </g>
                <g id="flare5" transform="matrix(-0.587383,0.809309,-0.809309,-0.587383,860.732,-122.816)">
                    <path d="M435.219,151.392L439.428,158.93L431.011,158.93L435.219,151.392Z">
                </g>
                <g id="flare4" transform="matrix(5.55112e-17,1,-1,5.55112e-17,638.903,-316.085)">
                    <path d="M435.219,151.392L439.428,158.93L431.011,158.93L435.219,151.392Z">
                </g>
                <g id="flare3" transform="matrix(0.443067,0.896488,-0.896488,0.443067,426.506,-356.16)">
                    <path d="M435.219,151.392L439.428,158.93L431.011,158.93L435.219,151.392Z">
                </g>
                <g id="flare2" transform="matrix(0.809309,0.587383,-0.587383,0.809309,207.949,-291.501)">
                    <path d="M435.219,151.392L439.428,158.93L431.011,158.93L435.219,151.392Z">
                </g>
                <g id="flare1" transform="matrix(1,0,0,1,14.6803,-69.6721)">
                    <path d="M435.219,151.392L439.428,158.93L431.011,158.93L435.219,151.392Z">
                </g>
            </g>
        </g>
        <g id="moon-group" transform="matrix(4.16667,0,0,4.16667,-543.925,-55.9871)">
            <g id="moon">
                <path id="moon1" serif:id="moon" d="M449.723,146.406C459.28,150.595 465.962,160.14 465.962,171.234C465.962,186.187 453.822,198.328 438.868,198.328C433.5,198.328 428.495,196.763 424.284,194.066C440.621,192.127 453.308,178.211 453.308,161.356C453.308,155.974 452.015,150.893 449.723,146.406Z"/>
            </g>
        </g>
        <g transform="matrix(1,0,0,1,539.369,59.8112)">
            <g id="cloud-group">
                <path id="cloud" d="M686.649,619.449C686.653,588.633 705.68,563.62 729.116,563.62C747.716,563.62 763.54,579.377 769.278,601.279C774.909,584.266 788.459,572.263 804.263,572.263C817.226,572.263 828.673,580.338 835.477,592.63C841.143,565.511 859.388,545.642 880.994,545.642C907.119,545.642 928.33,574.694 928.33,610.477C928.33,646.261 907.119,675.313 880.994,675.313C880.037,675.313 879.088,675.274 878.142,675.197L793.415,675.197C786.342,686.085 774.069,693.543 759.941,694.36L759.941,694.368L759.807,694.368C758.994,694.412 758.177,694.435 757.354,694.435C756.532,694.435 755.715,694.412 754.902,694.368L608.328,694.368C607.382,694.424 606.433,694.452 605.477,694.452C579.351,694.452 558.14,673.242 558.14,647.116C558.14,620.99 579.351,599.78 605.477,599.78C627.083,599.78 645.327,614.286 650.994,634.085C657.797,625.111 669.244,619.215 682.207,619.215C683.71,619.215 685.193,619.295 686.649,619.449Z"/>
            </g>
        </g>
    </g>
</svg>
