<?xml version="1.0" encoding="UTF-8" standalone="no"?>
<!DOCTYPE svg PUBLIC "-//W3C//DTD SVG 1.1//EN" "http://www.w3.org/Graphics/SVG/1.1/DTD/svg11.dtd">
<svg width="100%" height="100%" viewBox="0 0 96 96" version="1.1" xmlns="http://www.w3.org/2000/svg" xmlns:xlink="http://www.w3.org/1999/xlink" xml:space="preserve" xmlns:serif="http://www.serif.com/" style="fill-rule:evenodd;clip-rule:evenodd;stroke-linejoin:round;stroke-miterlimit:2;">
    <g transform="matrix(1,0,0,1,-468.056,-245.124)">
        <g transform="matrix(2.06634,0,0,1.8535,-527.323,-202.18)">
            <path d="M528.169,242.409C528.169,241.813 527.735,241.33 527.201,241.33L482.678,241.33C482.143,241.33 481.71,241.813 481.71,242.409L481.71,292.045C481.71,292.641 482.143,293.124 482.678,293.124L527.201,293.124C527.735,293.124 528.169,292.641 528.169,292.045L528.169,242.409Z" style="fill:#acacac;"/>
        </g>
        <g transform="matrix(0.638055,0,0,0.638055,365.319,101.621)">
            <path d="M177.352,263.995L230.595,232.88L230.595,256.046L206.935,269.797L236.258,286.925L265.552,269.855L241.99,256.035L241.99,232.956L295.211,264.015L295.211,326.289L275.401,314.748L275.423,287.331L246.227,304.203L246.172,338.469L269.778,324.666L289.578,336.221L236.258,367.392L183.004,336.285L202.793,324.712L226.274,338.403L226.485,304.313L197.124,287.246L197.062,314.684L177.276,326.216L177.352,263.995Z"/>
        </g>
    </g>
</svg>
